<?xml version="1.0" encoding="UTF-8" standalone="no"?>
<!-- Created with Inkscape (http://www.inkscape.org/) -->

<svg
   xmlns:dc="http://purl.org/dc/elements/1.1/"
   xmlns:cc="http://creativecommons.org/ns#"
   xmlns:rdf="http://www.w3.org/1999/02/22-rdf-syntax-ns#"
   xmlns:svg="http://www.w3.org/2000/svg"
   xmlns="http://www.w3.org/2000/svg"
   version="1.1"
   width="990"
   height="765"
   id="svg2"
   xml:space="preserve"><metadata
     id="metadata8"><rdf:RDF><cc:Work
         rdf:about=""><dc:format>image/svg+xml</dc:format><dc:type
           rdf:resource="http://purl.org/dc/dcmitype/StillImage" /><dc:title></dc:title></cc:Work></rdf:RDF></metadata><defs
     id="defs6"><clipPath
       id="clipPath34"><path
         d="M 0,612 792,612 792,0 0,0 0,612 z"
         id="path36" /></clipPath><clipPath
       id="clipPath42"><path
         d="m 132.945,401.179 95.567,0 0,-86.01 -95.567,0 0,86.01 z"
         id="path44" /></clipPath><clipPath
       id="clipPath58"><path
         d="m 360.441,401.179 76.453,0 0,-86.01 -76.453,0 0,86.01 z"
         id="path60" /></clipPath><clipPath
       id="clipPath72"><path
         d="m 570.953,401.179 76.454,0 0,-86.01 -76.454,0 0,86.01 z"
         id="path74" /></clipPath></defs><g
     transform="matrix(1.25,0,0,-1.25,0,765)"
     id="g10"
     style="display:inline"><path
       d="m 273.822,135.042 -182.003,0 0,294.845 182.003,0 0,-294.845 z"
       id="path12"
       style="fill:#f4f5f6;fill-opacity:1;fill-rule:nonzero;stroke:none" /><g
       transform="translate(305.7764,429.887)"
       id="g14"><path
         d="M 0,0 0,-123.909 11.453,-135.364 0,-146.82 l 0,-148.025 182.003,0 L 182.003,0 0,0 z"
         id="path16"
         style="fill:#f4f5f6;fill-opacity:1;fill-rule:nonzero;stroke:none" /></g><g
       transform="translate(309.7638,294.523)"
       id="g18"><path
         d="m 0,0 -29.218,29.225 0,-15.337 -12.828,0 0,-27.776 12.828,0 0,-15.337 L 0,0 z"
         id="path20"
         style="fill:#f4f5f6;fill-opacity:1;fill-rule:nonzero;stroke:none" /></g><g
       transform="translate(518.1783,429.887)"
       id="g22"><path
         d="M 0,0 0,-123.909 11.453,-135.364 0,-146.82 l 0,-148.025 182.003,0 L 182.003,0 0,0 z"
         id="path24"
         style="fill:#f4f5f6;fill-opacity:1;fill-rule:nonzero;stroke:none" /></g><g
       transform="translate(522.1656,294.523)"
       id="g26"><path
         d="m 0,0 -29.218,29.225 0,-15.337 -12.828,0 0,-27.776 12.828,0 0,-15.337 L 0,0 z"
         id="path28"
         style="fill:#f4f5f6;fill-opacity:1;fill-rule:nonzero;stroke:none" /></g><g
       id="g30"><g
         clip-path="url(#clipPath34)"
         id="g32"><g
           id="g38"><g
             id="g40" /><g
             id="g46"><g
               clip-path="url(#clipPath42)"
               id="g48"
               style="opacity:0.28999299"><g
                 transform="translate(180.4803,366.8997)"
                 id="g50"><path
                   d="m 0,0 -23.184,-23.04 14.335,0 0,-28.691 17.698,0 0,28.691 14.335,0 L 0,0 z m 38.57,18.892 -57.53,0 0,5.926 57.53,0 0,-5.926 z m -64.125,-0.525 c -1.98,0 -3.583,1.561 -3.583,3.488 0,1.927 1.603,3.487 3.583,3.487 1.981,0 3.584,-1.56 3.584,-3.487 0,-1.927 -1.603,-3.488 -3.584,-3.488 m -9.556,0 c -1.981,0 -3.584,1.561 -3.584,3.488 0,1.927 1.603,3.487 3.584,3.487 1.98,0 3.583,-1.56 3.583,-3.487 0,-1.927 -1.603,-3.488 -3.583,-3.488 m 73.586,15.912 -76.453,0 c -5.257,0 -9.557,-4.3 -9.557,-9.557 l 0,-57.34 c 0,-5.256 4.3,-9.461 9.557,-9.461 l 19.018,0 0,9.366 -19.114,0 0,44.056 76.644,0 0,-44.056 -19.113,0 0,-9.366 19.018,0 c 5.256,0 9.557,4.205 9.557,9.461 l 0,57.34 c 0,5.257 -4.301,9.557 -9.557,9.557"
                   id="path52"
                   style="fill:#292929;fill-opacity:1;fill-rule:nonzero;stroke:none" /></g></g></g></g><g
           id="g54"><g
             id="g56" /><g
             id="g62"><g
               clip-path="url(#clipPath58)"
               id="g64"
               style="opacity:0.28999299"><path
                 d="m 408.224,343.839 9.557,0 0,4.778 -9.557,0 0,-4.778 z m 9.557,-4.779 -38.227,0 0,-4.778 38.227,0 0,4.778 z m -23.892,14.335 23.892,0 0,4.778 -23.892,0 0,-4.778 z m -4.778,4.779 -9.557,0 0,-4.778 9.557,0 0,4.778 z m 4.778,23.891 -14.335,0 0,-19.113 14.335,0 0,19.113 z m 4.778,-9.556 19.113,0 0,9.557 -19.113,0 0,-9.557 z m 19.114,-4.779 -19.113,0 0,-4.778 19.113,0 0,4.778 z m -14.335,-19.113 -23.892,0 0,-4.778 23.892,0 0,4.778 z m 23.891,-23.892 -57.34,0 0,66.897 57.34,0 0,-66.897 z m 0,76.454 -57.34,0 c -5.256,0 -9.556,-4.301 -9.556,-9.557 l 0,-66.897 c 0,-5.256 4.3,-9.556 9.556,-9.556 l 57.34,0 c 5.257,0 9.557,4.3 9.557,9.556 l 0,66.897 c 0,5.256 -4.3,9.557 -9.557,9.557"
                 id="path66"
                 style="fill:#292929;fill-opacity:1;fill-rule:nonzero;stroke:none" /></g></g></g><g
           id="g68"><g
             id="g70" /><g
             id="g76"><g
               clip-path="url(#clipPath72)"
               id="g78"
               style="opacity:0.28999299"><g
                 transform="translate(585.2882,370.3206)"
                 id="g80"><path
                   d="m 0,0 c -3.142,0 -14.335,-1.911 -14.335,-14.916 l 0,-23.166 c 0,-13.006 11.193,-14.439 14.335,-14.439 3.141,0 -4.778,2.736 -4.778,10.796 l 0,30.452 C -4.778,-2.823 3.141,0 0,0 m 41.324,0.455 c -0.63,1.698 16.914,17.366 6.68,30.062 C 45.607,33.488 37.486,16.302 25.95,8.52 19.586,4.227 4.778,-4.911 4.778,-9.959 l 0,-32.685 c 0,-6.078 23.48,-12.508 41.329,-12.508 6.534,0 16.011,40.976 16.011,47.485 0,6.534 -20.164,6.423 -20.794,8.122"
                   id="path82"
                   style="fill:#292929;fill-opacity:1;fill-rule:nonzero;stroke:none" /></g></g></g></g></g></g></g><g
     id="layer1"
     style="display:inline"><text
       transform="matrix(1.25,0,0,1.25,189.17787,98.8495)"
       id="text84"><tspan
         x="0 20.818678 34.324368 42.851002 61.086792 79.291466 85.577522 96.998238 115.23402 131.66492 137.95097 156.4046 172.83548 184.2562 196.08145 204.60808 220.85225 236.87859 253.30948 259.59552 276.02643 294.26221 312.8092 319.09525 337.82895 354.25983 372.49564 389.36218 395.64822 412.67038 429.10126 441.48666 457.9798 466.50644 480.19882"
         y="0"
         id="tspan86"
         style="font-size:31.11910057px;font-variant:normal;font-weight:bold;font-stretch:normal;writing-mode:lr-tb;fill:#292929;fill-opacity:1;fill-rule:nonzero;stroke:none;font-family:Myriad Pro;-inkscape-font-specification:MyriadPro-Bold">Using the Retrieve and Rank Service</tspan></text>
<text
       transform="matrix(1.25,0,0,1.25,149.25237,166.35863)"
       id="text88"><tspan
         x="0 10.87149 21.590929 26.475498 31.360065 41.167213 49.986042 56.657185 60.591446 70.246544 81.118034 92.160576 96.094841 100.97941 111.69885 121.35395"
         y="0"
         id="tspan90"
         style="font-size:19.0060997px;font-variant:normal;font-weight:bold;font-stretch:normal;writing-mode:lr-tb;fill:#eb3438;fill-opacity:1;fill-rule:nonzero;stroke:none;font-family:Myriad Pro Light;-inkscape-font-specification:MyriadPro-Semibold">Collect and load</tspan><tspan
         x="34.363029 42.725712 53.445152 64.221611 70.778717 80.585861 91.36232"
         y="19.0061"
         id="tspan92"
         style="font-size:19.0060997px;font-variant:normal;font-weight:bold;font-stretch:normal;writing-mode:lr-tb;fill:#eb3438;fill-opacity:1;fill-rule:nonzero;stroke:none;font-family:Myriad Pro Light;-inkscape-font-specification:MyriadPro-Semibold">content</tspan></text>
<text
       transform="matrix(1.25,0,0,1.25,408.46862,166.35863)"
       id="text130"><tspan
         x="0 9.0278978 15.623014 25.278112 30.143675 41.015163 44.949425 51.620567 62.492058 72.299202 76.233467 92.350639 102.00574 110.53947 121.41096 126.27653 137.14801"
         y="0"
         id="tspan132"
         style="font-size:19.0060997px;font-variant:normal;font-weight:bold;font-stretch:normal;writing-mode:lr-tb;fill:#eb3438;fill-opacity:1;fill-rule:nonzero;stroke:none;font-family:Myriad Pro Light;-inkscape-font-specification:MyriadPro-Semibold">Train the machine</tspan><tspan
         x="18.816038 23.700607 33.507755 43.162853 49.929024 60.800514 65.666077 76.537567 87.428062 91.36232 97.959343 107.61444 118.48593"
         y="19.0061"
         id="tspan134"
         style="font-size:19.0060997px;font-variant:normal;font-weight:bold;font-stretch:normal;writing-mode:lr-tb;fill:#eb3438;fill-opacity:1;fill-rule:nonzero;stroke:none;font-family:Myriad Pro Light;-inkscape-font-specification:MyriadPro-Semibold">learning rank</tspan><tspan
         x="47.192146 63.309319 74.028763 85.071304 94.878448"
         y="38.012199"
         id="tspan136"
         style="font-size:19.0060997px;font-variant:normal;font-weight:bold;font-stretch:normal;writing-mode:lr-tb;fill:#eb3438;fill-opacity:1;fill-rule:nonzero;stroke:none;font-family:Myriad Pro Light;-inkscape-font-specification:MyriadPro-Semibold">model</tspan><tspan
         x="211.44286 224.89919 235.71365 245.5208 252.7032 262.20627 266.1405 274.06607 283.8732 291.05753 300.71262 305.57819 313.94086 323.74802 327.68228 337.33737 348.20886 359.2514"
         y="0"
         id="tspan138"
         style="font-size:19.0060997px;font-variant:normal;font-weight:bold;font-stretch:normal;writing-mode:lr-tb;fill:#eb3438;fill-opacity:1;fill-rule:nonzero;stroke:none;font-family:Myriad Pro Light;-inkscape-font-specification:MyriadPro-Semibold">Query service and </tspan><tspan
         x="220.79387 230.54399 240.08505 249.74016 254.62473 265.43918 274.98026 281.53735 291.34451 295.27878 301.8739 311.68103 319.60657 330.42105 335.3056 341.97675"
         y="19.0061"
         id="tspan140"
         style="font-size:19.0060997px;font-variant:normal;font-weight:bold;font-stretch:normal;writing-mode:lr-tb;fill:#eb3438;fill-opacity:1;fill-rule:nonzero;stroke:none;font-family:Myriad Pro Light;-inkscape-font-specification:MyriadPro-Semibold">evaluate results</tspan></text>
<text
       transform="matrix(1.25,0,0,1.25,146.03337,418.41062)"
       id="text94"><tspan
         x="0 4.4664288 7.8241696 16.83622 25.5315 29.269363 33.007225 40.942265 48.243767 53.486279 56.844017 63.844589 72.539871 81.26683 86.414307 94.34935 103.07631"
         y="0"
         id="tspan96"
         style="font-size:15.83839989px;font-variant:normal;font-weight:normal;font-stretch:normal;writing-mode:lr-tb;fill:#292929;fill-opacity:1;fill-rule:nonzero;stroke:none;font-family:Myriad Pro;-inkscape-font-specification:MyriadPro-Regular">• Collect content</tspan><tspan
         x="0 4.4664288 7.8241696 20.65169 29.346972 38.279827 41.986015 46.610828 54.070713 57.428455 65.062561 73.852875 82.785736 86.143471 94.87043 103.88248 107.62035 116.31563 123.94974 132.8826"
         y="38.012161"
         id="tspan98"
         style="font-size:15.83839989px;font-variant:normal;font-weight:normal;font-stretch:normal;writing-mode:lr-tb;fill:#292929;fill-opacity:1;fill-rule:nonzero;stroke:none;font-family:Myriad Pro;-inkscape-font-specification:MyriadPro-Regular">• Modify and upload </tspan><tspan
         x="8.6477661 16.551128 25.24641 28.984272 34.163429 37.521168 44.521744 53.217026 62.007336 70.290817 79.144485 87.871445 92.971405 100.54216 105.78468 109.49086 118.18614 126.97646"
         y="57.018242"
         id="tspan100"
         style="font-size:15.83839989px;font-variant:normal;font-weight:normal;font-stretch:normal;writing-mode:lr-tb;fill:#292929;fill-opacity:1;fill-rule:nonzero;stroke:none;font-family:Myriad Pro;-inkscape-font-specification:MyriadPro-Regular">Solr confguration </tspan><tspan
         x="8.6477661 16.93125 20.669111 28.604151"
         y="76.024323"
         id="tspan102"
         style="font-size:15.83839989px;font-variant:normal;font-weight:normal;font-stretch:normal;writing-mode:lr-tb;fill:#292929;fill-opacity:1;fill-rule:nonzero;stroke:none;font-family:Myriad Pro;-inkscape-font-specification:MyriadPro-Regular">fles</tspan><tspan
         x="0 4.4664288 11.181911 21.429356 30.441404 34.179268 42.87455 50.508659 59.441517 62.799255 69.801414 78.496696 87.222069 92.369553 100.30459 109.03155"
         y="114.03648"
         id="tspan104"
         style="font-size:15.83839989px;font-variant:normal;font-weight:normal;font-stretch:normal;writing-mode:lr-tb;fill:#292929;fill-opacity:1;fill-rule:nonzero;stroke:none;font-family:Myriad Pro;-inkscape-font-specification:MyriadPro-Regular">• Upload content</tspan><tspan
         x="208.65508 213.12151 219.83699 228.84904 237.54433 241.28218 245.02005 252.95509 260.25659 265.49908 268.85684 277.77386 286.50082 294.43585 299.67838 303.38455 311.31958 317.59158 320.94934 328.58344 337.37375 346.30661"
         y="-1.4067325e-014"
         id="tspan106"
         style="font-size:15.83839989px;font-variant:normal;font-weight:normal;font-stretch:normal;writing-mode:lr-tb;fill:#292929;fill-opacity:1;fill-rule:nonzero;stroke:none;font-family:Myriad Pro;-inkscape-font-specification:MyriadPro-Regular">• Collect queries and </tspan><tspan
         x="220.1696 225.19037 233.12541 236.86327 244.79831 252.35323 259.98734 268.71429 273.95682 277.31454 284.94867 293.73895 300.01099 311.50964 319.4447 324.62384 330.89584"
         y="19.006081"
         id="tspan108"
         style="font-size:15.83839989px;font-variant:normal;font-weight:normal;font-stretch:normal;writing-mode:lr-tb;fill:#292929;fill-opacity:1;fill-rule:nonzero;stroke:none;font-family:Myriad Pro;-inkscape-font-specification:MyriadPro-Regular">relevant answers </tspan><tspan
         x="220.1696 225.31708 234.01236 237.3701 241.10796 249.043 256.5029 264.43793 269.5379 277.172 286.02567 293.96069 297.31845 304.95255"
         y="38.012161"
         id="tspan110"
         style="font-size:15.83839989px;font-variant:normal;font-weight:normal;font-stretch:normal;writing-mode:lr-tb;fill:#292929;fill-opacity:1;fill-rule:nonzero;stroke:none;font-family:Myriad Pro;-inkscape-font-specification:MyriadPro-Regular">to leverage as</tspan><tspan
         x="220.1696 225.41211 230.51207 238.14618 241.85237 250.64268 254.34886 263.13919 271.99283 275.35059 284.28345 291.8526 297.09512"
         y="57.018242"
         id="tspan112"
         style="font-size:15.83839989px;font-variant:normal;font-weight:normal;font-stretch:normal;writing-mode:lr-tb;fill:#292929;fill-opacity:1;fill-rule:nonzero;stroke:none;font-family:Myriad Pro;-inkscape-font-specification:MyriadPro-Regular">training data</tspan><tspan
         x="208.65508 213.12151 216.47925 225.61801 230.63878 238.57382 246.14458 251.29205 259.22708 262.58484 270.21893 279.00925 287.94211 291.29987 300.02682 309.03885 312.77673 321.47202 329.10611 338.03897"
         y="95.030403"
         id="tspan114"
         style="font-size:15.83839989px;font-variant:normal;font-weight:normal;font-stretch:normal;writing-mode:lr-tb;fill:#292929;fill-opacity:1;fill-rule:nonzero;stroke:none;font-family:Myriad Pro;-inkscape-font-specification:MyriadPro-Regular">• Create and upload </tspan><tspan
         x="220.1696 225.41211 230.51207 238.14618 241.85237 250.64268 254.34886 263.13919 271.99283 275.35059 284.28345 291.8526 297.09512"
         y="114.03648"
         id="tspan116"
         style="font-size:15.83839989px;font-variant:normal;font-weight:normal;font-stretch:normal;writing-mode:lr-tb;fill:#292929;fill-opacity:1;fill-rule:nonzero;stroke:none;font-family:Myriad Pro;-inkscape-font-specification:MyriadPro-Regular">training data</tspan><tspan
         x="416.78751 421.25394 424.61166 432.51346 440.44849 449.2388 458.17166 461.52939 466.70856 475.43552 484.16248 489.40497 493.11118 506.32037"
         y="-2.813465e-014"
         id="tspan118"
         style="font-size:15.83839989px;font-variant:normal;font-weight:normal;font-stretch:normal;writing-mode:lr-tb;fill:#292929;fill-opacity:1;fill-rule:nonzero;stroke:none;font-family:Myriad Pro;-inkscape-font-specification:MyriadPro-Regular">• Send runtime</tspan><tspan
         x="425.29272 434.20975 442.93671 450.87173 456.11426 459.82043 467.75546 474.02747 477.38522 482.5311 491.22638 494.58414 499.82663 504.92661 512.56073 516.26691 525.05719 532.99225 541.92511"
         y="19.006081"
         id="tspan120"
         style="font-size:15.83839989px;font-variant:normal;font-weight:normal;font-stretch:normal;writing-mode:lr-tb;fill:#292929;fill-opacity:1;fill-rule:nonzero;stroke:none;font-family:Myriad Pro;-inkscape-font-specification:MyriadPro-Regular">queries to trained </tspan><tspan
         x="425.29272 438.50195 447.19724 456.1301 464.06512"
         y="38.012161"
         id="tspan122"
         style="font-size:15.83839989px;font-variant:normal;font-weight:normal;font-stretch:normal;writing-mode:lr-tb;fill:#292929;fill-opacity:1;fill-rule:nonzero;stroke:none;font-family:Myriad Pro;-inkscape-font-specification:MyriadPro-Regular">model</tspan><tspan
         x="416.78751 421.25394 424.61166 432.2933 439.84821 447.48233 451.22018 459.94714 467.5163 472.66379 480.59882 483.95657 488.97733 496.91238 503.18439 511.91135 515.64923 520.89172 527.1637 530.52148 538.15558 546.94586 555.87872"
         y="76.024323"
         id="tspan124"
         style="font-size:15.83839989px;font-variant:normal;font-weight:normal;font-stretch:normal;writing-mode:lr-tb;fill:#292929;fill-opacity:1;fill-rule:nonzero;stroke:none;font-family:Myriad Pro;-inkscape-font-specification:MyriadPro-Regular">• Evaluate results and </tspan><tspan
         x="425.29272 428.9989 442.20813 451.22018 456.24094 464.82538 472.28525 480.22028 483.57803 496.78726 505.48254 514.41541 522.3504"
         y="95.030403"
         id="tspan126"
         style="font-size:15.83839989px;font-variant:normal;font-weight:normal;font-stretch:normal;writing-mode:lr-tb;fill:#292929;fill-opacity:1;fill-rule:nonzero;stroke:none;font-family:Myriad Pro;-inkscape-font-specification:MyriadPro-Regular">improve model</tspan><tspan
         x="416.78751"
         y="114.03648"
         id="tspan128"
         style="font-size:15.83839989px;font-variant:normal;font-weight:normal;font-stretch:normal;writing-mode:lr-tb;fill:#292929;fill-opacity:1;fill-rule:nonzero;stroke:none;font-family:Myriad Pro;-inkscape-font-specification:MyriadPro-Regular"> </tspan></text>
</g></svg>